:SAMPLES-PER-SECOND 30
:FRAME-RANGE 1-2009
:FULLY-SPECIFIED
:DEGREES
314
root  22.7856 37.5674 120.567 -85.4032 85.7599 -86.1222
RightUpLeg  -18.6985 -1.24804 1.03674
RightLeg  18.1734 7.81003 2.43051
RightFoot  -3.10887 -0.515207 6.85556
RightToes  2.96424e-010 1.2921e-014 -6.02303e-014
Spine  -5.13162 0.0130713 12.7989
Spine1  8.60487 0.54025 -2.33041
HEad  16.237 59.7467 -5.89336
LeftShoulder1  0.899021 0.103987 -21.986
LeftArm  4.53111 -1.7543 -52.7411
LeftForeArm  30.8747 -4.52961 -13.0965
LeftHand  -0.0554834 4.38709 4.0952
RightShoulder  1.65162 2.13353 24.2461
RightArm  -17.6247 1.83816 46.3194
RightForeArm  49.1426 6.22375 8.8466
RightHand  -0.00320739 -5.44443 -18.4414
LeftUpLeg  -8.27212 -6.37932 3.27998
LeftLeg  54.1887 -4.65407 -6.42872
LeftFoot  3.66619 1.48751 -11.4335
LeftToes  -1.2485e-010 1.20979e-011 -1.0929e-011
315
root  23.6061 37.5816 120.794 -114.789 84.5218 -115.386
RightUpLeg  -17.143 -3.52967 1.6017
RightLeg  18.886 7.29813 3.16603
RightFoot  -5.26468 -0.364815 6.19064
RightToes  2.96424e-010 1.2921e-014 -6.02303e-014
Spine  -4.04023 0.258549 14.4529
Spine1  7.89161 0.981312 -2.58503
HEad  13.0105 58.2614 -8.52625
LeftShoulder1  0.869885 0.240563 -22.3045
LeftArm  5.20156 -0.930961 -52.6864
LeftForeArm  32.386 -4.88207 -13.0927
LeftHand  -0.0555972 4.36407 4.02133
RightShoulder  1.79107 2.58146 24.3232
RightArm  -15.5418 8.74315 44.9377
RightForeArm  49.5983 5.12593 9.55513
RightHand  -0.0364895 -5.23005 -17.4333
LeftUpLeg  -13.4969 -5.50267 4.30662
LeftLeg  61.0544 -1.925 -3.19654
LeftFoot  3.31198 1.16972 -9.24024
LeftToes  -1.2485e-010 1.20979e-011 -1.0929e-011
316
root  24.479 37.7146 121 -129.861 83.5472 -130.215
RightUpLeg  -14.8944 -4.89459 1.39892
RightLeg  18.447 6.92596 3.64051
RightFoot  -6.86952 -0.297522 6.41512
RightToes  2.96424e-010 1.2921e-014 -6.02303e-014
Spine  -3.61097 0.939386 15.3025
Spine1  8.03429 1.84017 -3.15964
HEad  11.2438 57.7792 -9.42309
LeftShoulder1  0.821885 0.424688 -22.4604
LeftArm  5.00561 -0.8059 -53.0812
LeftForeArm  34.3329 -3.73268 -13.3759
LeftHand  -0.0508178 4.5012 4.46896
RightShoulder  1.99078 3.31874 23.9518
RightArm  -15.6007 15.0327 43.651
RightForeArm  50.9519 3.24108 9.3586
RightHand  -0.120279 -4.64317 -16.8668
LeftUpLeg  -17.4535 -4.28697 3.97318
LeftLeg  64.2113 -0.113308 0.396806
LeftFoot  0.125964 0.576668 -5.7494
LeftToes  -1.2485e-010 1.20979e-011 -1.0929e-011
317
root  25.3324 37.8326 121.16 -142.254 82.3833 -142.519
RightUpLeg  -12.8796 -5.30997 1.03073
RightLeg  18.0535 5.69698 3.45392
RightFoot  -8.51544 -0.215157 6.36739
RightToes  2.96424e-010 1.2921e-014 -6.02303e-014
Spine  -3.21913 1.571 15.8622
Spine1  8.06455 2.61624 -3.67531
HEad  10.005 57.0868 -10.0459
LeftShoulder1  0.83286 0.339593 -21.9849
LeftArm  2.7531 -0.0314879 -53.9841
LeftForeArm  36.5988 -2.0463 -13.3564
LeftHand  -0.0514075 4.60535 4.5356
RightShoulder  2.02323 3.74097 22.539
RightArm  -17.7753 19.8998 43.8137
RightForeArm  53.4879 1.70829 7.95811
RightHand  0.0339575 -5.70282 -17.5084
LeftUpLeg  -20.6549 -3.65162 3.19624
LeftLeg  63.7753 0.403064 1.53619
LeftFoot  -1.87962 0.279603 -3.24231
LeftToes  -1.2485e-010 1.20979e-011 -1.0929e-011
318
root  26.1976 37.9627 121.298 -152.875 80.9296 -153.306
RightUpLeg  -11.1445 -5.34317 0.622539
RightLeg  17.6482 3.97407 2.74138
RightFoot  -9.79957 -0.153429 6.44371
RightToes  2.96424e-010 1.2921e-014 -6.02303e-014
Spine  -2.76956 2.11736 16.2242
Spine1  7.46067 3.31972 -4.64738
HEad  9.61572 56.6374 -9.85783
LeftShoulder1  0.801833 0.421243 -21.686
LeftArm  1.41036 1.18699 -54.4237
LeftForeArm  37.2775 -0.793004 -13.317
LeftHand  -0.0480067 4.74294 4.82103
RightShoulder  2.06337 4.1684 21.368
RightArm  -20.6715 23.0249 43.5654
RightForeArm  54.578 1.7349 6.36567
RightHand  0.0661798 -5.92758 -17.283
LeftUpLeg  -23.5618 -3.62485 1.84411
LeftLeg  60.5031 1.05888 2.60296
LeftFoot  -2.90441 0.193504 -2.38688
LeftToes  -1.2485e-010 1.20979e-011 -1.0929e-011
319
root  27.0512 38.0522 121.404 -159.77 79.2107 -160.432
RightUpLeg  -9.54909 -5.57091 0.385184
RightLeg  17.2693 2.14127 2.14777
RightFoot  -10.9449 -0.0949095 5.93283
RightToes  2.96424e-010 1.2921e-014 -6.02303e-014
Spine  -2.35834 2.70146 16.5812
Spine1  6.89452 4.00086 -5.54222
HEad  8.93222 56.3446 -10.1728
LeftShoulder1  0.790836 0.472913 -21.8122
LeftArm  1.69107 2.76123 -54.1436
LeftForeArm  37.0211 -1.02289 -13.4169
LeftHand  -0.0303105 5.2009 3.36661
RightShoulder  2.04831 4.38958 20.3101
RightArm  -23.4777 24.929 43.0978
RightForeArm  51.8309 2.87728 5.12497
RightHand  0.335586 -7.47906 -19.3448
LeftUpLeg  -25.5227 -4.15 0.588433
LeftLeg  55.0144 2.27373 3.98293
LeftFoot  -4.76392 0.0994298 -1.23176
LeftToes  -1.2485e-010 1.20979e-011 -1.0929e-011
320
root  27.9141 38.1274 121.482 -163.714 77.1283 -164.521
RightUpLeg  -7.87088 -5.8554 0.35824
RightLeg  16.9434 0.247589 1.79267
RightFoot  -11.7183 -0.0618696 5.37772
RightToes  2.96424e-010 1.2921e-014 -6.02303e-014
Spine  -2.42669 3.21607 17.0021
Spine1  7.01786 4.53463 -6.19344
HEad  8.6016 56.0274 -10.1825
LeftShoulder1  0.788813 0.511737 -22.1473
LeftArm  1.47603 3.66877 -53.6166
LeftForeArm  37.1742 -0.0376049 -13.5892
LeftHand  -0.0274892 5.31671 3.4546
RightShoulder  2.04741 4.55874 19.6838
RightArm  -25.7498 26.426 42.3821
RightForeArm  49.8614 4.16754 4.21047
RightHand  0.0753075 -5.92582 -18.9059
LeftUpLeg  -26.59 -5.29345 -0.318996
LeftLeg  47.7263 4.39168 5.57506
LeftFoot  -5.46613 0.00792447 0.486975
LeftToes  -1.2485e-010 1.20979e-011 -1.0929e-011
321
root  28.7991 38.2023 121.536 -166.599 75.0835 -167.568
RightUpLeg  -6.08507 -6.16591 0.41064
RightLeg  16.3475 -1.70496 1.38203
RightFoot  -12.3632 -0.0418401 4.71414
RightToes  2.96424e-010 1.2921e-014 -6.02303e-014
Spine  -2.36123 3.60849 16.9697
Spine1  6.83856 4.93591 -6.79763
HEad  8.02405 56.1357 -10.3038
LeftShoulder1  0.651681 1.01034 -22.3146
LeftArm  -0.255798 5.08351 -53.1988
LeftForeArm  38.8961 1.16281 -13.3041
LeftHand  -0.0309841 5.18282 3.68799
RightShoulder  2.11255 4.80236 19.7115
RightArm  -27.2178 27.4434 41.4586
RightForeArm  48.233 5.23287 3.7489
RightHand  0.00263762 -5.46853 -19.6594
LeftUpLeg  -26.6679 -5.83095 -1.34669
LeftLeg  38.7694 7.22055 6.54179
LeftFoot  -3.61077 -0.151735 2.5681
LeftToes  -1.2485e-010 1.20979e-011 -1.0929e-011
322
root  29.7091 38.2673 121.562 -168.396 73.1419 -169.413
RightUpLeg  -4.03136 -6.43848 0.571351
RightLeg  15.508 -3.4832 1.13153
RightFoot  -13.0348 -0.0257062 4.24114
RightToes  2.96424e-010 1.2921e-014 -6.02303e-014
Spine  -2.72149 4.16627 16.3878
Spine1  7.27812 5.35433 -6.56658
HEad  7.58052 55.8505 -10.5454
LeftShoulder1  0.579992 1.29768 -22.8366
LeftArm  -2.27701 6.23521 -52.8092
LeftForeArm  39.8098 2.89162 -12.8574
LeftHand  -0.0111907 5.94487 3.57308
RightShoulder  2.14399 4.93479 19.6738
RightArm  -28.3941 28.0479 40.9164
RightForeArm  47.2654 5.97371 3.35292
RightHand  -0.077933 -5.00157 -20.4352
LeftUpLeg  -25.8797 -5.11618 -2.45634
LeftLeg  28.9515 10.6323 6.63687
LeftFoot  -1.60787 -0.26829 3.26452
LeftToes  -1.2485e-010 1.20979e-011 -1.0929e-011
323
root  30.6697 38.207 121.547 -168.553 71.0542 -169.509
RightUpLeg  -2.13694 -6.55234 1.36304
RightLeg  15.2357 -5.55252 0.719997
RightFoot  -14.2178 0.0017314 3.90674
RightToes  2.96424e-010 1.2921e-014 -6.02303e-014
Spine  -2.97519 4.50554 16.1926
Spine1  7.04397 5.54782 -6.4127
HEad  8.24544 56.0541 -9.53304
LeftShoulder1  0.586401 1.25061 -22.4662
LeftArm  -3.04615 8.63031 -52.3496
LeftForeArm  38.0238 3.76131 -12.7722
LeftHand  -0.0171453 5.6723 3.88223
RightShoulder  2.22912 5.16169 20.0104
RightArm  -28.9324 27.949 41.2478
RightForeArm  47.0399 6.31226 3.1205
RightHand  -0.0724902 -5.03113 -20.3197
LeftUpLeg  -24.112 -2.6635 -3.80378
LeftLeg  18.3836 13.6388 5.31253
LeftFoot  -0.402639 -0.374083 3.93106
LeftToes  -1.2485e-010 1.20979e-011 -1.0929e-011
324
root  31.6391 38.1484 121.484 -168.4 68.8335 -169.395
RightUpLeg  -0.22588 -7.19327 2.08904
RightLeg  14.7611 -6.93855 0.666398
RightFoot  -15.1701 0.0202079 3.67951
RightToes  2.96424e-010 1.2921e-014 -6.02303e-014
Spine  -3.59571 4.63192 15.6977
Spine1  7.26104 5.54255 -6.19168
HEad  8.05585 56.5892 -9.19825
LeftShoulder1  0.51912 1.48042 -22.368
LeftArm  -3.42194 10.6344 -51.493
LeftForeArm  37.5453 4.50041 -12.752
LeftHand  -0.00193313 6.20144 3.89224
RightShoulder  2.24469 5.13437 20.3005
RightArm  -28.4096 27.8474 42.626
RightForeArm  46.4357 6.18147 3.20668
RightHand  -0.083646 -4.96511 -20.1979
LeftUpLeg  -22.4987 -1.17084 -4.83862
LeftLeg  9.22461 19.8456 3.52898
LeftFoot  0.284776 -0.305099 2.97959
LeftToes  -1.2485e-010 1.20979e-011 -1.0929e-011
325
root  32.6031 38.033 121.368 -168.533 66.5872 -169.596
RightUpLeg  1.52764 -8.52882 2.74312
RightLeg  14.5387 -7.83839 0.433095
RightFoot  -16.3913 0.0542377 3.74771
RightToes  2.96424e-010 1.2921e-014 -6.02303e-014
Spine  -4.14753 4.63908 15.1057
Spine1  7.42795 5.54583 -6.32266
HEad  6.96042 57.3518 -9.5469
LeftShoulder1  0.448398 1.71542 -22.1107
LeftArm  -3.66273 12.2252 -50.5074
LeftForeArm  37.6907 5.67267 -12.7464
LeftHand  0.000932578 6.27487 3.97798
RightShoulder  2.24231 5.01477 20.6788
RightArm  -27.0842 27.0612 44.6536
RightForeArm  47.0096 6.07291 3.66747
RightHand  -0.033813 -5.25302 -20.2966
LeftUpLeg  -21.0297 -2.44662 -5.33119
LeftLeg  1.69595 30.4572 1.44616
LeftFoot  -0.144023 -0.403465 4.12318
LeftToes  -1.2485e-010 1.20979e-011 -1.0929e-011
326
root  33.6349 37.8275 121.205 -168.762 64.7414 -169.773
RightUpLeg  2.80886 -10.9398 3.32488
RightLeg  15.7874 -7.17319 -0.315311
RightFoot  -18.0652 0.118621 4.10191
RightToes  2.96424e-010 1.2921e-014 -6.02303e-014
Spine  -4.75093 4.70318 14.2881
Spine1  7.8052 5.61511 -6.38752
HEad  4.08891 58.317 -11.1879
LeftShoulder1  0.370347 1.99281 -22.1285
LeftArm  -3.51118 12.9919 -49.1773
LeftForeArm  37.5499 7.6649 -12.8939
LeftHand  -0.00639018 6.37839 2.91417
RightShoulder  2.32153 5.09757 21.4068
RightArm  -25.1987 26.1723 46.6436
RightForeArm  47.5356 5.34237 4.34077
RightHand  -0.00949803 -5.39115 -20.5653
LeftUpLeg  -19.7744 -3.3207 -6.16969
LeftLeg  -3.83154 39.0019 -0.542079
LeftFoot  -1.34146 -0.408969 4.76469
LeftToes  -1.2485e-010 1.20979e-011 -1.0929e-011
